<?xml version="1.0" standalone="no"?>
<!DOCTYPE svg PUBLIC "-//W3C//DTD SVG 20010904//EN"
 "http://www.w3.org/TR/2001/REC-SVG-20010904/DTD/svg10.dtd">
<svg version="1.0" xmlns="http://www.w3.org/2000/svg"
 width="565.000000pt" height="565.000000pt" viewBox="0 0 565.000000 565.000000"
 preserveAspectRatio="xMidYMid meet">
<metadata>
Created by potrace 1.14, written by Peter Selinger 2001-2017
</metadata>
<g transform="translate(0.000000,565.000000) scale(0.100000,-0.100000)"
fill="#000000" stroke="none">
<path d="M2838 5126 c-1 -2 -46 -6 -98 -9 -52 -4 -104 -8 -115 -11 -11 -2 -40
-7 -65 -12 -25 -4 -47 -8 -50 -9 -3 -1 -21 -5 -40 -9 -112 -25 -419 -152 -428
-177 -2 -5 -8 -9 -14 -9 -23 0 -179 -112 -239 -171 -230 -228 -376 -447 -404
-609 -3 -18 -8 -37 -11 -41 -2 -5 -6 -40 -8 -79 -3 -61 2 -88 35 -191 51 -155
68 -249 67 -381 l0 -108 -91 -1 c-51 0 -105 -2 -122 -4 -110 -13 -135 -18
-175 -36 -87 -39 -114 -81 -135 -210 -12 -75 -12 -266 -1 -344 3 -22 8 -62 12
-90 17 -140 70 -331 113 -412 28 -51 29 -59 20 -106 -11 -56 -13 -157 -4 -197
3 -14 7 -36 10 -50 8 -43 41 -133 70 -190 27 -52 134 -218 162 -250 7 -8 40
-49 74 -90 279 -345 742 -661 1076 -736 83 -18 304 -25 399 -11 150 21 371
109 529 212 157 101 450 360 533 470 94 124 119 165 176 280 56 114 85 184
101 251 53 212 62 264 59 332 l-4 72 66 0 c69 0 115 17 147 54 85 97 125 290
125 601 0 311 -42 471 -138 523 -45 25 -138 41 -217 37 -44 -2 -63 1 -63 9 0
34 51 200 77 252 100 196 126 410 70 571 -70 202 -212 375 -428 520 -97 65
-334 194 -404 221 -17 6 -61 22 -100 37 -67 25 -151 49 -205 59 -14 2 -36 7
-50 10 -47 11 -95 16 -190 22 -52 3 -100 7 -107 9 -6 2 -13 2 -15 1z m-1396
-2111 c-5 -43 -33 -48 -50 -10 -17 37 -16 40 21 42 32 3 33 2 29 -32z m2927
-150 c37 -205 39 -227 37 -331 -2 -75 -8 -111 -22 -140 l-19 -39 -80 0 c-74 0
-80 2 -92 24 -10 22 -9 28 10 45 13 12 24 24 25 28 9 29 15 38 24 38 5 0 6 -6
2 -12 -4 -7 -3 -9 1 -5 13 11 15 38 3 31 -5 -3 -4 3 3 15 10 14 16 17 21 8 5
-7 7 -2 7 13 -1 23 19 88 31 100 8 8 10 27 11 94 1 66 -17 117 -49 135 -49 29
-49 28 3 81 27 27 52 47 55 42 4 -4 16 -61 29 -127z m-3138 -464 l-36 -44 -7
39 c-4 21 -7 60 -7 85 l-1 45 44 -40 44 -41 -37 -44z"/>
</g>
</svg>
