<svg id="kaziu" data-name="kaziu" xmlns="http://www.w3.org/2000/svg" viewBox="0 0 50.1 14.8"><defs><style>.cls-1{fill:none;}</style></defs><title>kaziu</title><path d="M11.2,14.2H8.1L4.4,9.7,1,13.6V1.7H3.4V7.6l4.8-6h3a.1.1,0,0,1-.1.1L6,8.1Z"/><path d="M22.6,14.2H20.1L17.6,7.2l-2.5,7.1H12.6c-.1,0-.1,0,0-.1L17.4,1.7h.3Z"/><path d="M24.1,4a.2.2,0,0,1-.2-.2V1.7h7.5c.1,0,.2.1.1.2L28.4,9.6H25.8L28,4Zm7.3,8,.2.2v2.1H24.1c-.2,0-.2-.1-.2-.2l.9-2.2Z"/><path id="i" d="M38,12.2c.1,0,.1.1.1.2v1.9H32.7V12.4a.2.2,0,0,1,.2-.2h1.3V1.6h2.5V12.2Z"/><path id="u" d="M48.7,1.6h.1v8.4a3.9,3.9,0,0,1-1.3,3.2A5.6,5.6,0,0,1,44,14.4a5,5,0,0,1-3.4-1.2,3.8,3.8,0,0,1-1.4-3.1V3.9h2.4v6.2a2.2,2.2,0,0,0,.8,1.4A2.4,2.4,0,0,0,44,12a2.5,2.5,0,0,0,1.7-.5,1.5,1.5,0,0,0,.7-1.4V1.7h2.3Z"/></svg>